<svg xmlns="http://www.w3.org/2000/svg" version="1.1" xmlns:xlink="http://www.w3.org/1999/xlink" xmlns:svgjs="http://svgjs.dev/svgjs" width="1000" height="1000" viewBox="0 0 1000 1000"><rect width="1000" height="1000" fill="#000000"></rect><g transform="matrix(0.7,0,0,0.7,149.613036201562,264.291012145749)"><svg viewBox="0 0 366 247" data-background-color="#444444" preserveAspectRatio="xMidYMid meet" height="674" width="1000" xmlns="http://www.w3.org/2000/svg" xmlns:xlink="http://www.w3.org/1999/xlink"><g id="tight-bounds" transform="matrix(1,0,0,1,0.20232683592152512,-0.09999999999999432)"><svg viewBox="0 0 365.5953362122705 247.2" height="247.2" width="365.5953362122705"><g><svg viewBox="0 0 395.52 267.4337835185941" height="247.2" width="365.5953362122705"><g transform="matrix(1,0,0,1,0,189.342333852895)"><svg viewBox="0 0 395.52 78.09144966569912" height="78.09144966569912" width="395.52"><g id="textblocktransform"><svg viewBox="0 0 395.52 78.09144966569912" height="78.09144966569912" width="395.52" id="textblock"><g><svg viewBox="0 0 395.52 42.118796460176995" height="42.118796460176995" width="395.52"><g transform="matrix(1,0,0,1,0,0)"><svg width="395.52" viewBox="3 -35.5 338.9800109863281 36.099998474121094" height="42.118796460176995" data-palette-color="#ffffff"><path d="M14.75 0.6L14.75 0.6Q11.6 0.6 9.63-0.38 7.65-1.35 6.85-3L6.85-3 6.6-3 6.6 0 3 0 3-10.25 6.6-10.25 6.6-7.95Q6.6-6.7 6.98-5.63 7.35-4.55 8.22-3.75 9.1-2.95 10.53-2.5 11.95-2.05 14-2.05L14-2.05Q18.35-2.05 20.28-3.9 22.2-5.75 22.2-8.85L22.2-8.85Q22.2-11.5 20.73-13 19.25-14.5 16.1-15.35L16.1-15.35 13.35-16.05Q8.7-17.25 6.15-19.65 3.6-22.05 3.6-26.25L3.6-26.25Q3.6-28.35 4.4-30.08 5.2-31.8 6.65-33 8.1-34.2 10.13-34.85 12.15-35.5 14.6-35.5L14.6-35.5Q17.45-35.5 19.28-34.63 21.1-33.75 21.85-32.2L21.85-32.2 22.15-32.2 22.15-34.9 25.75-34.9 25.75-25.15 22.15-25.15 22.15-27.45Q22.15-28.7 21.78-29.7 21.4-30.7 20.5-31.4 19.6-32.1 18.15-32.48 16.7-32.85 14.6-32.85L14.6-32.85Q11.1-32.85 9.35-31.25 7.6-29.65 7.6-27.05L7.6-27.05Q7.6-24.35 9.18-22.83 10.75-21.3 14.15-20.4L14.15-20.4 16.7-19.75Q21.25-18.55 23.7-16.15 26.15-13.75 26.15-9.85L26.15-9.85Q26.15-7.6 25.4-5.68 24.65-3.75 23.2-2.35 21.75-0.95 19.63-0.18 17.5 0.6 14.75 0.6ZM38.15 0L38.15-2.3 42.9-2.3 42.9-32.45 34.1-32.45 34.1-26.5 30.5-26.5 30.5-34.9 59.6-34.9 59.6-26.5 56-26.5 56-32.45 47.2-32.45 47.2-2.3 51.95-2.3 51.95 0 38.15 0ZM78.85-2.05L78.85-2.05Q81.4-2.05 83.37-2.98 85.35-3.9 86.7-5.58 88.05-7.25 88.75-9.55 89.45-11.85 89.45-14.6L89.45-14.6 89.45-20.3Q89.45-23.05 88.75-25.35 88.05-27.65 86.7-29.33 85.35-31 83.37-31.93 81.4-32.85 78.85-32.85L78.85-32.85Q76.3-32.85 74.32-31.93 72.35-31 71-29.33 69.65-27.65 68.95-25.35 68.25-23.05 68.25-20.3L68.25-20.3 68.25-14.6Q68.25-11.85 68.95-9.55 69.65-7.25 71-5.58 72.35-3.9 74.32-2.98 76.3-2.05 78.85-2.05ZM78.85 0.6L78.85 0.6Q75.4 0.6 72.55-0.65 69.7-1.9 67.67-4.25 65.65-6.6 64.55-9.93 63.45-13.25 63.45-17.45L63.45-17.45Q63.45-21.65 64.55-24.98 65.65-28.3 67.67-30.65 69.7-33 72.55-34.25 75.4-35.5 78.85-35.5L78.85-35.5Q82.3-35.5 85.15-34.25 88-33 90.02-30.65 92.05-28.3 93.15-24.98 94.25-21.65 94.25-17.45L94.25-17.45Q94.25-13.25 93.15-9.93 92.05-6.6 90.02-4.25 88-1.9 85.15-0.65 82.3 0.6 78.85 0.6ZM114.34 0.6L114.34 0.6Q111.04 0.6 108.34-0.65 105.64-1.9 103.74-4.25 101.84-6.6 100.79-9.95 99.74-13.3 99.74-17.45L99.74-17.45Q99.74-21.8 100.79-25.15 101.84-28.5 103.72-30.8 105.59-33.1 108.24-34.3 110.89-35.5 114.09-35.5L114.09-35.5Q117.34-35.5 119.52-34.43 121.69-33.35 122.39-31.75L122.39-31.75 122.59-31.75 122.59-34.9 126.19-34.9 126.19-24.7 122.59-24.7 122.59-27.3Q122.59-29.8 120.39-31.33 118.19-32.85 114.64-32.85L114.64-32.85Q111.99-32.85 110.07-31.88 108.14-30.9 106.92-29.23 105.69-27.55 105.12-25.33 104.54-23.1 104.54-20.65L104.54-20.65 104.54-14.6Q104.54-11.85 105.27-9.65 105.99-7.45 107.37-5.88 108.74-4.3 110.74-3.45 112.74-2.6 115.29-2.6L115.29-2.6Q118.84-2.6 121.24-4.45 123.64-6.3 124.74-9.15L124.74-9.15 126.69-8.2Q126.24-6.75 125.24-5.2 124.24-3.65 122.72-2.35 121.19-1.05 119.09-0.23 116.99 0.6 114.34 0.6ZM132.44 0L132.44-2.3 136.19-2.3 136.19-32.6 132.44-32.6 132.44-34.9 144.24-34.9 144.24-32.6 140.49-32.6 140.49-15.9 140.69-15.9 145.34-21.15 155.84-32.6 151.84-32.6 151.84-34.9 162.59-34.9 162.59-32.6 159.24-32.6 148.44-20.95 160.49-2.3 163.94-2.3 163.94 0 151.99 0 151.99-2.3 155.54-2.3 145.44-17.85 140.49-12.5 140.49-2.3 144.24-2.3 144.24 0 132.44 0ZM186.03 0L186.03-2.3 190.78-2.3 190.78-32.45 181.98-32.45 181.98-26.5 178.38-26.5 178.38-34.9 207.48-34.9 207.48-26.5 203.88-26.5 203.88-32.45 195.08-32.45 195.08-2.3 199.83-2.3 199.83 0 186.03 0ZM211.98 0L211.98-2.3 215.73-2.3 215.73-32.6 211.98-32.6 211.98-34.9 228.28-34.9Q232.93-34.9 235.51-32.58 238.08-30.25 238.08-25.65L238.08-25.65Q238.08-22.1 236.11-19.73 234.13-17.35 230.33-16.65L230.33-16.65 236.18-5.8Q237.18-4 238.43-3.15 239.68-2.3 241.53-2.3L241.53-2.3 241.98-2.3 241.98 0 238.78 0Q237.33 0 236.36-0.3 235.38-0.6 234.63-1.15 233.88-1.7 233.31-2.55 232.73-3.4 232.13-4.5L232.13-4.5 225.93-16.05 220.03-16.05 220.03-2.3 223.78-2.3 223.78 0 211.98 0ZM220.03-32.45L220.03-18.5 227.88-18.5Q230.58-18.5 232.03-20.18 233.48-21.85 233.48-24.3L233.48-24.3 233.48-26.6Q233.48-29.05 232.03-30.75 230.58-32.45 227.88-32.45L227.88-32.45 220.03-32.45ZM244.13 0L244.13-2.3 246.78-2.3 258.13-34.9 262.88-34.9 274.18-2.3 276.83-2.3 276.83 0 265.03 0 265.03-2.3 269.53-2.3 266.43-11.35 252.83-11.35 249.73-2.3 254.23-2.3 254.23 0 244.13 0ZM259.53-31.25L253.53-13.75 265.68-13.75 259.83-31.25 259.53-31.25ZM280.38 0L280.38-2.3 284.13-2.3 284.13-32.6 280.38-32.6 280.38-34.9 294.98-34.9Q298.43-34.9 301.28-33.83 304.13-32.75 306.15-30.58 308.18-28.4 309.3-25.13 310.43-21.85 310.43-17.45L310.43-17.45Q310.43-13.05 309.3-9.78 308.18-6.5 306.15-4.33 304.13-2.15 301.28-1.07 298.43 0 294.98 0L294.98 0 280.38 0ZM288.43-32.45L288.43-2.45 294.53-2.45Q297.08-2.45 299.15-3.33 301.23-4.2 302.65-5.78 304.08-7.35 304.85-9.55 305.63-11.75 305.63-14.45L305.63-14.45 305.63-20.45Q305.63-23.15 304.85-25.35 304.08-27.55 302.65-29.13 301.23-30.7 299.15-31.58 297.08-32.45 294.53-32.45L294.53-32.45 288.43-32.45ZM315.68 0L315.68-2.3 319.43-2.3 319.43-32.6 315.68-32.6 315.68-34.9 341.48-34.9 341.48-26.5 337.88-26.5 337.88-32.45 323.73-32.45 323.73-19.2 333.63-19.2 333.63-23.2 336.63-23.2 336.63-12.75 333.63-12.75 333.63-16.75 323.73-16.75 323.73-2.45 338.38-2.45 338.38-8.85 341.98-8.85 341.98 0 315.68 0Z" opacity="1" transform="matrix(1,0,0,1,0,0)" fill="#ffffff" class="undefined-text-0" data-fill-palette-color="primary" id="text-0"></path></svg></g></svg></g><g transform="matrix(1,0,0,1,0,52.06203345330974)"><svg viewBox="0 0 395.52 26.029416212389382" height="26.029416212389382" width="395.52"><g transform="matrix(1,0,0,1,0,0)"><svg width="395.52" viewBox="3.9000000953674316 -35.5 698.97998046875 46" height="26.029416212389382" data-palette-color="#00d1cd"><path d="M20.6-35L20.6-32.9 6.15-32.9 6.15-20.65 16.25-20.65 15.5-18.45 6.15-18.45 6.15-2.05 20.5-2.05 20.5 0 3.9 0 3.9-35 20.6-35ZM41.31-25.05L48.56-2.6 55.86-25.05 58.21-25.05 50.01 0 47.11 0 38.96-25.05 41.31-25.05ZM74.13-16.95Q74.13-21 76.65-23.25 79.18-25.5 83.33-25.5L83.33-25.5Q87.48-25.5 89.8-23.28 92.13-21.05 92.13-17.1L92.13-17.1 92.13-11.1 76.38-10.25 76.38-6.65Q76.38-4.05 78.05-2.73 79.73-1.4 82.43-1.4L82.43-1.4Q86.03-1.4 89.98-3.5L89.98-3.5 90.88-1.75Q89.08-0.6 86.78 0 84.48 0.6 82.18 0.6L82.18 0.6Q78.48 0.6 76.3-1.23 74.13-3.05 74.13-6.7L74.13-6.7 74.13-16.95ZM76.38-12.45L89.88-13.15 89.88-17.35Q89.88-20.7 87.83-22.13 85.78-23.55 83.28-23.55L83.28-23.55Q80.33-23.55 78.35-21.95 76.38-20.35 76.38-16.95L76.38-16.95 76.38-12.45ZM114.19-25.05L114.09-23.05Q116.59-25.5 120.69-25.5L120.69-25.5Q122.09-25.5 124.44-25.05L124.44-25.05 123.84-22.95Q122.19-23.45 120.54-23.45L120.54-23.45Q117.94-23.45 116.07-22.45 114.19-21.45 114.19-19.7L114.19-19.7 114.19 0 111.94 0 111.94-25.05 114.19-25.05ZM143.21-25.05L143.21-8.3Q143.21-5 145.03-3.23 146.86-1.45 150.21-1.45L150.21-1.45Q153.51-1.45 155.56-3.23 157.61-5 157.61-8.3L157.61-8.3 157.61-18.3Q157.61-20.6 157.73-21.78 157.86-22.95 158.53-23.95 159.21-24.95 160.76-25.5L160.76-25.5 161.41-23.95Q159.81-23.05 159.81-20.15L159.81-20.15 159.81 3.05Q159.81 6.1 158.61 7.85 157.41 9.6 154.56 10.5L154.56 10.5 153.96 8.75Q155.81 8.1 156.73 6.75 157.66 5.4 157.66 3.15L157.66 3.15 157.66-3Q156.61-1.1 154.56-0.25 152.51 0.6 150.21 0.6L150.21 0.6Q145.81 0.6 143.43-1.78 141.06-4.15 141.06-8.8L141.06-8.8 141.06-25.05 143.21-25.05ZM180.27-15.8Q180.27-20.55 182.7-23.08 185.12-25.6 189.67-25.6L189.67-25.6Q194.02-25.6 196.47-22.98 198.92-20.35 198.92-15.8L198.92-15.8 198.92-9.2Q198.92-5 196.62-2.25 194.32 0.5 189.67 0.5L189.67 0.5Q185.02 0.5 182.65-2.27 180.27-5.05 180.27-9.2L180.27-9.2 180.27-15.8ZM182.52-8.85Q182.52-5.65 184.4-3.58 186.27-1.5 189.67-1.5L189.67-1.5Q193.07-1.5 194.87-3.55 196.67-5.6 196.67-8.85L196.67-8.85 196.67-15.85Q196.67-19.75 194.75-21.65 192.82-23.55 189.67-23.55L189.67-23.55Q186.42-23.55 184.47-21.68 182.52-19.8 182.52-15.85L182.52-15.85 182.52-8.85ZM220.94-25.05L220.94-23.7Q222.29-24.55 224.11-25 225.94-25.45 227.89-25.45L227.89-25.45Q230.94-25.45 232.89-24.5L232.89-24.5Q237.14-22.55 237.14-17.3L237.14-17.3 237.14 0 234.94 0 234.94-17.2Q234.94-20.45 232.94-21.95 230.94-23.45 227.89-23.45L227.89-23.45Q226.14-23.45 224.29-22.98 222.44-22.5 220.94-21.7L220.94-21.7 220.94 0 218.69 0 218.69-25.05 220.94-25.05ZM257.05-16.95Q257.05-21 259.58-23.25 262.1-25.5 266.25-25.5L266.25-25.5Q270.4-25.5 272.73-23.28 275.05-21.05 275.05-17.1L275.05-17.1 275.05-11.1 259.3-10.25 259.3-6.65Q259.3-4.05 260.98-2.73 262.65-1.4 265.35-1.4L265.35-1.4Q268.95-1.4 272.9-3.5L272.9-3.5 273.8-1.75Q272-0.6 269.7 0 267.4 0.6 265.1 0.6L265.1 0.6Q261.4 0.6 259.23-1.23 257.05-3.05 257.05-6.7L257.05-6.7 257.05-16.95ZM259.3-12.45L272.8-13.15 272.8-17.35Q272.8-20.7 270.75-22.13 268.7-23.55 266.2-23.55L266.2-23.55Q263.25-23.55 261.28-21.95 259.3-20.35 259.3-16.95L259.3-16.95 259.3-12.45ZM326.68-35L326.68-20.65 343.68-20.65 343.68-35 345.93-35 345.93 0 343.68 0 343.68-18.45 326.68-18.45 326.68 0 324.43 0 324.43-35 326.68-35ZM375.44-25.45Q380.24-25.45 382.52-23.93 384.79-22.4 385.32-20.3 385.84-18.2 385.84-14.9L385.84-14.9 385.84 0Q380.44 0.55 378.04 0.55L378.04 0.55Q372.79 0.55 369.69-1.4 366.59-3.35 366.59-8.45L366.59-8.45 366.59-12.6Q366.59-17.55 370.09-19.25L370.09-19.25Q371.79-20.1 374.39-20.1L374.39-20.1Q376.84-20.1 379.34-19.35 381.84-18.6 383.59-17.3L383.59-17.3Q383.59-20.15 381.84-21.93 380.09-23.7 375.29-23.65L375.29-23.65 375.44-25.45ZM368.79-8.1Q368.79-4.5 371.22-2.98 373.64-1.45 377.99-1.45L377.99-1.45Q379.99-1.45 383.59-1.9L383.59-1.9 383.59-15.45Q381.69-16.5 379.19-17.28 376.69-18.05 374.49-18.05L374.49-18.05Q371.94-18.05 370.37-16.75 368.79-15.45 368.79-12.45L368.79-12.45 368.79-8.1ZM418.21-22.3Q418.06-22.4 417.43-22.73 416.81-23.05 415.76-23.35 414.71-23.65 413.41-23.65L413.41-23.65Q410.71-23.65 408.81-22.33 406.91-21 407.16-18.5L407.16-18.5Q407.31-16.75 408.91-15.83 410.51-14.9 413.66-13.95L413.66-13.95Q416.46-13.05 418.16-12.28 419.86-11.5 421.06-10.03 422.26-8.55 422.26-6.25L422.26-6.25Q422.26-3.25 420.03-1.25 417.81 0.75 413.51 0.75L413.51 0.75Q410.66 0.75 408.58-0.23 406.51-1.2 405.43-2.8 404.36-4.4 404.26-6.35L404.26-6.35 406.41-6.35Q406.71-4 408.68-2.68 410.66-1.35 413.51-1.35L413.51-1.35Q416.11-1.35 418.06-2.6 420.01-3.85 420.01-6.2L420.01-6.2Q420.01-7.8 419.06-8.85 418.11-9.9 416.73-10.53 415.36-11.15 413.01-11.9L413.01-11.9Q410.51-12.7 408.98-13.38 407.46-14.05 406.31-15.25 405.16-16.45 404.96-18.25L404.96-18.25Q404.91-18.5 404.91-18.95L404.91-18.95Q404.91-20.6 405.81-22.13 406.71-23.65 408.63-24.65 410.56-25.65 413.41-25.65L413.41-25.65Q414.96-25.65 416.21-25.33 417.46-25 418.16-24.65 418.86-24.3 419.01-24.2L419.01-24.2 418.21-22.3ZM478.24-25.45Q483.04-25.45 485.31-23.93 487.59-22.4 488.11-20.3 488.64-18.2 488.64-14.9L488.64-14.9 488.64 0Q483.24 0.55 480.84 0.55L480.84 0.55Q475.59 0.55 472.49-1.4 469.39-3.35 469.39-8.45L469.39-8.45 469.39-12.6Q469.39-17.55 472.89-19.25L472.89-19.25Q474.59-20.1 477.19-20.1L477.19-20.1Q479.64-20.1 482.14-19.35 484.64-18.6 486.39-17.3L486.39-17.3Q486.39-20.15 484.64-21.93 482.89-23.7 478.09-23.65L478.09-23.65 478.24-25.45ZM471.59-8.1Q471.59-4.5 474.01-2.98 476.44-1.45 480.79-1.45L480.79-1.45Q482.79-1.45 486.39-1.9L486.39-1.9 486.39-15.45Q484.49-16.5 481.99-17.28 479.49-18.05 477.29-18.05L477.29-18.05Q474.74-18.05 473.16-16.75 471.59-15.45 471.59-12.45L471.59-12.45 471.59-8.1ZM538.12-8.9Q538.27-7.15 539.42-5.45 540.57-3.75 542.67-2.68 544.77-1.6 547.57-1.6L547.57-1.6Q551.72-1.6 554.44-3.45 557.17-5.3 557.17-9.35L557.17-9.35Q557.17-11.65 555.84-13.15 554.52-14.65 552.57-15.55 550.62-16.45 547.32-17.6L547.32-17.6Q543.82-18.8 541.72-19.8 539.62-20.8 538.17-22.53 536.72-24.25 536.72-26.9L536.72-26.9Q536.72-29.1 537.97-31.08 539.22-33.05 541.74-34.27 544.27-35.5 547.97-35.5L547.97-35.5Q550.42-35.5 552.02-35.15 553.62-34.8 555.27-34L555.27-34 554.57-31.85Q551.72-33.3 548.07-33.3L548.07-33.3Q544.07-33.3 541.57-31.6 539.07-29.9 539.07-26.75L539.07-26.75Q539.07-24.9 540.27-23.63 541.47-22.35 543.24-21.55 545.02-20.75 548.17-19.7L548.17-19.7Q551.82-18.45 554.09-17.35 556.37-16.25 557.97-14.35 559.57-12.45 559.57-9.5L559.57-9.5Q559.57-4.9 556.64-2.18 553.72 0.55 547.62 0.55L547.62 0.55Q543.92 0.55 541.29-0.83 538.67-2.2 537.29-4.38 535.92-6.55 535.82-8.9L535.82-8.9 538.12-8.9ZM582.28-35L582.28-23.7Q583.63-24.55 585.46-25 587.28-25.45 589.23-25.45L589.23-25.45Q592.28-25.45 594.23-24.5L594.23-24.5Q598.48-22.55 598.48-17.3L598.48-17.3 598.48 0 596.28 0 596.28-17.2Q596.28-20.45 594.31-21.95 592.33-23.45 589.28-23.45L589.28-23.45Q587.48-23.45 585.63-22.98 583.78-22.5 582.28-21.7L582.28-21.7 582.28 0 580.03 0 580.03-35 582.28-35ZM627-25.45Q631.8-25.45 634.07-23.93 636.35-22.4 636.87-20.3 637.4-18.2 637.4-14.9L637.4-14.9 637.4 0Q632 0.55 629.6 0.55L629.6 0.55Q624.35 0.55 621.25-1.4 618.15-3.35 618.15-8.45L618.15-8.45 618.15-12.6Q618.15-17.55 621.65-19.25L621.65-19.25Q623.35-20.1 625.95-20.1L625.95-20.1Q628.4-20.1 630.9-19.35 633.4-18.6 635.15-17.3L635.15-17.3Q635.15-20.15 633.4-21.93 631.65-23.7 626.85-23.65L626.85-23.65 627-25.45ZM620.35-8.1Q620.35-4.5 622.77-2.98 625.2-1.45 629.55-1.45L629.55-1.45Q631.55-1.45 635.15-1.9L635.15-1.9 635.15-15.45Q633.25-16.5 630.75-17.28 628.25-18.05 626.05-18.05L626.05-18.05Q623.5-18.05 621.92-16.75 620.35-15.45 620.35-12.45L620.35-12.45 620.35-8.1ZM659.31-25.05L659.21-23.05Q661.71-25.5 665.81-25.5L665.81-25.5Q667.21-25.5 669.56-25.05L669.56-25.05 668.96-22.95Q667.31-23.45 665.66-23.45L665.66-23.45Q663.06-23.45 661.19-22.45 659.31-21.45 659.31-19.7L659.31-19.7 659.31 0 657.06 0 657.06-25.05 659.31-25.05ZM684.88-16.95Q684.88-21 687.4-23.25 689.93-25.5 694.08-25.5L694.08-25.5Q698.23-25.5 700.55-23.28 702.88-21.05 702.88-17.1L702.88-17.1 702.88-11.1 687.13-10.25 687.13-6.65Q687.13-4.05 688.8-2.73 690.48-1.4 693.18-1.4L693.18-1.4Q696.78-1.4 700.73-3.5L700.73-3.5 701.63-1.75Q699.83-0.6 697.53 0 695.23 0.6 692.93 0.6L692.93 0.6Q689.23 0.6 687.05-1.23 684.88-3.05 684.88-6.7L684.88-6.7 684.88-16.95ZM687.13-12.45L700.63-13.15 700.63-17.35Q700.63-20.7 698.58-22.13 696.53-23.55 694.03-23.55L694.03-23.55Q691.08-23.55 689.1-21.95 687.13-20.35 687.13-16.95L687.13-16.95 687.13-12.45Z" opacity="1" transform="matrix(1,0,0,1,0,0)" fill="#ffffff" class="undefined-text-1" data-fill-palette-color="secondary" id="text-1"></path></svg></g></svg></g></svg></g></svg></g><g transform="matrix(1,0,0,1,108.06045157011887,0)"><svg viewBox="0 0 179.39909685976224 179.39909685976224" height="179.39909685976224" width="179.39909685976224"><g><svg></svg></g><g id="icon-0"><svg viewBox="0 0 179.39909685976224 179.39909685976224" height="179.39909685976224" width="179.39909685976224"><g><rect width="163.12028992248753" height="163.12028992248753" x="8.139403468637354" y="8.139403468637354" fill="#ffffff" data-fill-palette-color="accent"></rect><rect width="163.12028992248753" height="163.12028992248753" x="-5.329070518200751e-15" y="16.278806937274716" fill="#ffffff" opacity="0.5" data-fill-palette-color="accent"></rect></g><g transform="matrix(1,0,0,1,38.28625444229356,23.25543848182103)"><svg viewBox="0 0 102.82658797517512 132.88821989612018" height="132.88821989612018" width="102.82658797517512"><g><svg xmlns="http://www.w3.org/2000/svg" xmlns:xlink="http://www.w3.org/1999/xlink" version="1.1" x="0" y="0" viewBox="12.982999801635742 1 75.68599700927734 97.81300354003906" enable-background="new 0 0 100 100" xml:space="preserve" height="132.88821989612018" width="102.82658797517512" class="icon-s-0" data-fill-palette-color="background" id="s-0"><g fill="#444444" data-fill-palette-color="background"><polygon fill-rule="evenodd" clip-rule="evenodd" points="12.983,10.59 30.001,98.813 24.129,39.764 53.15,37.872 53.096,27.989    64.549,1 53.622,18.977  " fill="#444444" data-fill-palette-color="background"></polygon><polygon fill-rule="evenodd" clip-rule="evenodd" points="59.389,54.548 64.549,1.007 55.809,40.723 36.197,41.768 37.767,62.23    30.001,98.813 42.058,58.914  " fill="#444444" data-fill-palette-color="background"></polygon><polygon fill-rule="evenodd" clip-rule="evenodd" points="62.8,67.182 63.349,56.729 47.37,60.484 47.338,72.281 30.001,98.813    51.681,71.197  " fill="#444444" data-fill-palette-color="background"></polygon><polygon fill-rule="evenodd" clip-rule="evenodd" points="65.711,62.394 80.552,57.663 82.061,45.131 66.162,47.226  " fill="#444444" data-fill-palette-color="background"></polygon><polygon fill-rule="evenodd" clip-rule="evenodd" points="72.07,44.502 83.058,43.085 84.639,32.807 76.56,32.434 64.549,1    72.979,31.967  " fill="#444444" data-fill-palette-color="background"></polygon><polygon fill-rule="evenodd" clip-rule="evenodd" points="87.413,31.294 88.669,21.788 79.125,19.094 64.549,1 79.032,23.437    78.61,30.437  " fill="#444444" data-fill-palette-color="background"></polygon></g></svg></g></svg></g></svg></g></svg></g><g></g></svg></g><defs></defs></svg><rect width="365.5953362122705" height="247.2" fill="none" stroke="none" visibility="hidden"></rect></g></svg></g></svg>